<?xml version="1.0" ?><svg data-name="Layer 1" id="Layer_1" viewBox="0 0 512 512" xmlns="http://www.w3.org/2000/svg"><path d="M424.84,115.25v0h0c-.09-.22-.19-.45-.3-.66h0a6.22,6.22,0,0,0-3.14-2.94h0a1,1,0,0,0-.28-.11l-59.2-22.26a6,6,0,0,0-1.37-.86l-60.6-22.78c-.05,0-.12,0-.18,0L239.33,42.83a6.33,6.33,0,0,0-5.35.44L89.91,126.74c-.13.08-.17.24-.3.32a6.17,6.17,0,0,0-1.93,2.07c-.08.14-.2.24-.27.39a6.17,6.17,0,0,0-.62,2.64l0,261c1.23,9.53,5.65,17,13.13,22.26,9.27,6.49,21.8,8.22,32.57,8.22a114.66,114.66,0,0,0,16.38-1.23,30.15,30.15,0,0,0,11.67,15.76c9.27,6.48,21.8,8.22,32.58,8.22a114,114,0,0,0,16.28-1.22,30.14,30.14,0,0,0,11.75,16.13c9.27,6.48,21.8,8.22,32.57,8.22a113.72,113.72,0,0,0,22.48-2.3,5.79,5.79,0,0,0,.79-.39,5.66,5.66,0,0,0,.7-.34,6.74,6.74,0,0,0,1-.49l143.34-83a6.26,6.26,0,0,0,3.12-5.42V117.51A6.06,6.06,0,0,0,424.84,115.25ZM272.41,195c-9.21,1.84-32.11,4.15-44-4.2a17.87,17.87,0,0,1-7-9.64l137.59-79.7,45.45,17.08Zm-59.82-23.25c-.09,0-.18,0-.27,0-8.85,1.85-32.4,4.43-44.55-4.1a17.87,17.87,0,0,1-7-9.64l137.59-79.7,45.81,17.22ZM237.7,55.6l45.42,17.08-132,76.46c-9.15,1.86-32,4.23-44-4.17a17.91,17.91,0,0,1-7.06-9.65ZM107.14,405.2a18.3,18.3,0,0,1-7.83-12.79V154.65c.24.17.42.39.66.57,9.26,6.48,21.78,8.23,32.55,8.23a113.78,113.78,0,0,0,14.9-1l0,247.62C136.81,411.62,117.69,412.6,107.14,405.2ZM167.77,428a18.27,18.27,0,0,1-7.83-12.8V177.41c.24.18.41.4.65.57,9.27,6.48,21.8,8.22,32.58,8.22a113.39,113.39,0,0,0,14.85-1l0,247.61C197.41,434.39,178.31,435.34,167.77,428Zm60.6,23.13a18.32,18.32,0,0,1-7.83-12.8V200.63l.66.47c14.17,9.92,35.95,8.72,47.42,7.2V455.92C258,457.51,238.9,458.46,228.37,451.08ZM412.69,374l-131.55,76.2V204.44l131.55-76.22Z"/></svg>