<?xml version="1.0" encoding="UTF-8"?>
<svg xmlns="http://www.w3.org/2000/svg" xmlns:xlink="http://www.w3.org/1999/xlink" viewBox="0 0 50 50" width="50px" height="50px">
<g id="surface67487949">
<path style=" stroke:none;fill-rule:nonzero;fill:rgb(100%,100%,100%);fill-opacity:1;" d="M 13 2 C 12.445312 2 12 2.449219 12 3 L 12 47 C 12 47.359375 12.191406 47.6875 12.5 47.867188 C 12.8125 48.046875 13.195312 48.042969 13.503906 47.863281 L 25 41.15625 L 36.496094 47.863281 C 36.652344 47.953125 36.824219 48 37 48 C 37.171875 48 37.34375 47.957031 37.496094 47.867188 C 37.808594 47.6875 38 47.359375 38 47 L 38 35.820312 C 37.3125 35.703125 36.644531 35.53125 36 35.300781 L 36 45.257812 L 25.503906 39.136719 C 25.347656 39.046875 25.175781 39 25 39 C 24.824219 39 24.652344 39.046875 24.496094 39.136719 L 14 45.257812 L 14 4 L 36 4 L 36 12.695312 C 36.644531 12.46875 37.3125 12.296875 38 12.179688 L 38 3 C 38 2.449219 37.554688 2 37 2 Z M 40.011719 13.988281 C 34.511719 13.988281 30.011719 18.488281 30.011719 23.988281 C 30.011719 29.488281 34.511719 33.988281 40.011719 33.988281 C 45.511719 33.988281 50.011719 29.488281 50.011719 23.988281 C 50.011719 18.488281 45.511719 13.988281 40.011719 13.988281 Z M 40.011719 15.988281 C 44.410156 15.988281 48.011719 19.589844 48.011719 23.988281 C 48.011719 28.386719 44.410156 31.988281 40.011719 31.988281 C 35.613281 31.988281 32.011719 28.386719 32.011719 23.988281 C 32.011719 19.589844 35.613281 15.988281 40.011719 15.988281 Z M 40.011719 18.085938 C 39.410156 18.085938 39.011719 18.488281 39.011719 19.085938 L 39.011719 22.988281 L 35.113281 22.988281 C 34.511719 22.988281 34.113281 23.386719 34.113281 23.988281 C 34.113281 24.589844 34.511719 24.988281 35.113281 24.988281 L 39.011719 24.988281 L 39.011719 28.886719 C 39.011719 29.488281 39.410156 29.886719 40.011719 29.886719 C 40.613281 29.886719 41.011719 29.488281 41.011719 28.886719 L 41.011719 24.988281 L 44.910156 24.988281 C 45.511719 24.988281 45.910156 24.589844 45.910156 23.988281 C 45.910156 23.386719 45.511719 22.988281 44.910156 22.988281 L 41.011719 22.988281 L 41.011719 19.085938 C 41.011719 18.488281 40.613281 18.085938 40.011719 18.085938 Z M 40.011719 18.085938 "/>
</g>
</svg>
