<?xml version="1.0" ?><!DOCTYPE svg  PUBLIC '-//W3C//DTD SVG 1.1//EN'  'http://www.w3.org/Graphics/SVG/1.1/DTD/svg11.dtd'><svg enable-background="new 0 0 91 91" height="91px" id="Layer_1" version="1.1" viewBox="0 0 91 91" width="91px" xml:space="preserve" xmlns="http://www.w3.org/2000/svg" xmlns:xlink="http://www.w3.org/1999/xlink"><g><path d="M44.996,73.604c9.092,0,17.404-4.302,22.654-11.602l4.641,4.642l2.404-2.404L62.742,52.286   c1.092-1.459,1.828-3.132,2.154-4.919h4.564c-0.141,2.075-0.533,4.111-1.188,6.072l3.225,1.076   c0.949-2.842,1.432-5.819,1.432-8.849c0-15.404-12.531-27.936-27.934-27.936c-15.404,0-27.938,12.531-27.938,27.936   S29.592,73.604,44.996,73.604z M61.635,36.868c-1.5-1.5-3.336-2.533-5.332-3.059c2.975-0.641,5.803-1.541,8.449-2.669   c2.684,3.642,4.383,8.048,4.711,12.826h-4.438C64.744,41.286,63.566,38.801,61.635,36.868z M53.279,53.645   c-2.25,0-4.363-0.876-5.955-2.468c-1.59-1.59-2.465-3.703-2.465-5.951c0-2.247,0.877-4.361,2.467-5.952s3.703-2.466,5.953-2.466   c2.248,0,4.361,0.875,5.951,2.465s2.465,3.705,2.467,5.954c0,2.249-0.877,4.362-2.467,5.952S55.527,53.645,53.279,53.645z    M44.996,70.204c-0.48,0-0.955-0.018-1.428-0.045c-1.939-2.844-3.496-6.23-4.619-9.969c1.865-0.197,3.766-0.308,5.693-0.308   c1.854,0,3.682,0.092,5.471,0.273c-1.133,3.786-2.703,7.182-4.654,10.033C45.305,70.192,45.15,70.204,44.996,70.204z    M44.643,56.482c-2.221,0-4.408,0.141-6.555,0.389c-0.668-3.026-1.07-6.223-1.174-9.504h4.744c0.428,2.34,1.543,4.495,3.262,6.214   c1.684,1.684,3.785,2.795,6.07,3.241c-0.002,0.006-0.004,0.012-0.004,0.019C48.91,56.609,46.793,56.482,44.643,56.482z    M44.922,36.87c-1.932,1.933-3.109,4.417-3.393,7.097h-4.615c0.102-3.212,0.494-6.352,1.145-9.335   c2.154,0.25,4.352,0.393,6.584,0.393c0.941,0,1.875-0.026,2.805-0.07C46.535,35.473,45.684,36.108,44.922,36.87z M33.514,43.967   h-12.99c0.322-4.68,1.961-9.001,4.551-12.598c2.994,1.227,6.225,2.153,9.617,2.765C34.018,37.288,33.615,40.596,33.514,43.967z    M33.516,47.367c0.102,3.439,0.512,6.803,1.203,10c-3.365,0.605-6.574,1.521-9.551,2.73c-2.645-3.623-4.318-7.993-4.645-12.73   H33.516z M27.479,62.827c2.531-0.947,5.244-1.66,8.066-2.154c0.922,3.195,2.146,6.167,3.629,8.827   C34.658,68.397,30.631,66.044,27.479,62.827z M49.738,69.751c1.553-2.728,2.826-5.794,3.783-9.12   c3.102,0.528,6.063,1.33,8.807,2.404C58.893,66.483,54.533,68.821,49.738,69.751z M64.662,60.323   c-3.191-1.351-6.656-2.354-10.309-2.995c0.023-0.111,0.043-0.228,0.066-0.34c2.16-0.205,4.189-1.004,5.918-2.299l4.873,4.875   C65.033,59.823,64.848,60.073,64.662,60.323z M62.434,28.431c-2.762,1.09-5.742,1.9-8.865,2.436   c-0.961-3.381-2.254-6.502-3.826-9.27C54.654,22.563,59.045,25.001,62.434,28.431z M45.473,21.144   c1.971,2.885,3.553,6.354,4.689,10.2c-1.807,0.185-3.65,0.28-5.52,0.28c-1.943,0-3.857-0.111-5.734-0.313   c1.125-3.803,2.693-7.257,4.654-10.135c0.475-0.027,0.951-0.045,1.434-0.045C45.154,21.132,45.313,21.141,45.473,21.144z    M39.166,21.837c-1.502,2.699-2.729,5.738-3.654,8.991c-2.857-0.502-5.598-1.228-8.152-2.194   C30.527,25.354,34.598,22.955,39.166,21.837z" fill="#010101"/></g></svg>