<?xml version="1.0" ?><svg data-name="Layer 1" id="Layer_1" viewBox="0 0 512 512" xmlns="http://www.w3.org/2000/svg"><path d="M454.27,250.88a6.16,6.16,0,0,0,0-1c0-.05,0-.09,0-.14a6.28,6.28,0,0,0-.45-1,6.15,6.15,0,0,0-.61-1.2c0-.05,0-.11-.08-.15-23-29.14.18-67.59.42-68,.08-.14.09-.29.16-.43a6.9,6.9,0,0,0,.29-.8,6.08,6.08,0,0,0,.37-2.1c0-.18.1-.33.09-.51s-.11-.22-.13-.34a6.08,6.08,0,0,0-.92-2.54c0-.05,0-.12-.08-.17a6.24,6.24,0,0,0-1.82-1.72c-.12-.07-.25-.07-.37-.14s-.15-.16-.24-.2l-215.34-102a6.32,6.32,0,0,0-6.31.55L72,180.62s0,.06-.07.09a6.1,6.1,0,0,0-1.62,1.73c-1.13,1.81-26.21,43.37-2.06,78.75-6,11.53-21.71,48,2.46,78.63a6.31,6.31,0,0,0,2.24,1.79l215.35,102a6.3,6.3,0,0,0,2.67.6h0a6.11,6.11,0,0,0,3.21-1c.13-.07.28,0,.4-.12L451.75,331.39v0c.07-.05.17,0,.24-.08a6.09,6.09,0,0,0,2.12-3.49c.05-.19.15-.36.18-.54a6.76,6.76,0,0,0,0-1.19,6.24,6.24,0,0,0-.1-1.29,5.27,5.27,0,0,0-.22-.49,6.06,6.06,0,0,0-.72-1.63c-.05-.07-.14-.1-.19-.17-23-29.14.18-67.58.42-68,0,0,0-.1.06-.15a5.77,5.77,0,0,0,.42-1.14,5.86,5.86,0,0,0,.36-1,.91.91,0,0,0,0-.17A5.85,5.85,0,0,0,454.27,250.88ZM292.51,429.13c-15.43-25.54-.25-55.85,3.1-61.9l138.11-98.1c-4.48,15.16-6.53,36.18,5.73,55.65ZM78.34,194l204,96.6c-5.27,10.91-14.14,34.63-6.08,58.3L79.57,255.74C62.79,233,73,205.11,78.34,194ZM292.51,354.08c-15.56-25.78,0-56.4,3.19-62.06l138-98c-4.49,15.17-6.53,36.22,5.77,55.7ZM233.42,81.31l202.37,95.86L290.31,280.49l-27.7-13.12L87.94,184.63ZM79.65,330.93C62.76,308.23,73,280.31,78.3,269.1l204,96.6c-5.29,11-14.13,34.68-6,58.33Z"/></svg>